<?xml version="1.0" encoding="UTF-8"?>
<svg width="432px" height="81px" viewBox="0 0 432 81" version="1.1" xmlns="http://www.w3.org/2000/svg" xmlns:xlink="http://www.w3.org/1999/xlink">
    <!-- Generator: Sketch 52.5 (67469) - http://www.bohemiancoding.com/sketch -->
    <title>Group</title>
    <desc>Created with Sketch.</desc>
    <g id="Page-1" stroke="none" stroke-width="1" fill="none" fill-rule="evenodd">
        <g id="Group">
            <path d="M4.5078125,80 L4.5078125,63.1953125 L7.87109375,63.1953125 L7.87109375,80 L4.5078125,80 Z M11.6796875,80 L11.6796875,63.1953125 L14.7734375,63.1953125 L19.5195312,72.8046875 L24.2773438,63.1953125 L27.3710938,63.1953125 L27.3710938,80 L24.1601562,80 L24.1601562,69.6757812 L21.0078125,75.921875 L18.03125,75.921875 L14.890625,69.6757812 L14.890625,80 L11.6796875,80 Z M31.0625,80 L31.0625,63.1953125 L34.15625,63.1953125 L38.9023438,72.8046875 L43.6601562,63.1953125 L46.7539062,63.1953125 L46.7539062,80 L43.5429688,80 L43.5429688,69.6757812 L40.390625,75.921875 L37.4140625,75.921875 L34.2734375,69.6757812 L34.2734375,80 L31.0625,80 Z M50.3164062,73.953125 L50.3164062,63.1953125 L53.65625,63.1953125 L53.65625,74.09375 C53.65625,75.1718804 53.9785124,76.0175751 54.6230469,76.6308594 C55.2675813,77.2441437 56.1367133,77.5507812 57.2304688,77.5507812 C58.3164117,77.5507812 59.1796843,77.2441437 59.8203125,76.6308594 C60.4609407,76.0175751 60.78125,75.1718804 60.78125,74.09375 L60.78125,63.1953125 L64.1445312,63.1953125 L64.1445312,73.953125 C64.1445312,75.8750096 63.529303,77.419916 62.2988281,78.5878906 C61.0683532,79.7558652 59.378917,80.3398438 57.2304688,80.3398438 C55.0820205,80.3398438 53.3925843,79.7558652 52.1621094,78.5878906 C50.9316345,77.419916 50.3164062,75.8750096 50.3164062,73.953125 Z M66.4882812,65.984375 L66.4882812,63.1953125 L79.3554688,63.1953125 L79.3554688,65.984375 L74.5976562,65.984375 L74.5976562,80 L71.2460938,80 L71.2460938,65.984375 L66.4882812,65.984375 Z M80.5273438,80 L86.5507812,63.1953125 L89.9609375,63.1953125 L95.984375,80 L92.6445312,80 L91.5195312,76.4726562 L84.9921875,76.4726562 L83.8671875,80 L80.5273438,80 Z M85.8359375,73.8125 L90.6523438,73.8125 L88.2617188,66.21875 L85.8359375,73.8125 Z M98.3867188,80 L98.3867188,63.1953125 L105.921875,63.1953125 C107.38282,63.1953125 108.546871,63.5859336 109.414062,64.3671875 C110.281254,65.1484414 110.714844,66.1757749 110.714844,67.4492188 C110.714844,68.3554733 110.521486,69.1367155 110.134766,69.7929688 C109.748045,70.449222 109.238284,70.9570295 108.605469,71.3164062 C109.519536,71.5117197 110.267575,71.9492154 110.849609,72.6289062 C111.431644,73.3085971 111.722656,74.1914008 111.722656,75.2773438 C111.722656,76.6836008 111.197271,77.8222613 110.146484,78.6933594 C109.095698,79.5644575 107.726571,80 106.039062,80 L98.3867188,80 Z M101.644531,77.3632812 L105.875,77.3632812 C106.671879,77.3632812 107.287107,77.1582052 107.720703,76.7480469 C108.154299,76.3378886 108.371094,75.7734411 108.371094,75.0546875 C108.371094,74.351559 108.14844,73.796877 107.703125,73.390625 C107.25781,72.984373 106.640629,72.78125 105.851562,72.78125 L101.644531,72.78125 L101.644531,77.3632812 Z M101.644531,70.15625 L105.171875,70.15625 C105.867191,70.15625 106.406248,69.9511739 106.789062,69.5410156 C107.171877,69.1308573 107.363281,68.5937533 107.363281,67.9296875 C107.363281,67.2890593 107.167971,66.7812519 106.777344,66.40625 C106.386717,66.0312481 105.843753,65.84375 105.148438,65.84375 L101.644531,65.84375 L101.644531,70.15625 Z M114.289062,80 L114.289062,63.1953125 L117.640625,63.1953125 L117.640625,77.2109375 L125.375,77.2109375 L125.375,80 L114.289062,80 Z M128.199219,80 L128.199219,63.1953125 L139.953125,63.1953125 L139.953125,65.984375 L131.550781,65.984375 L131.550781,70.0859375 L139.238281,70.0859375 L139.238281,72.8984375 L131.550781,72.8984375 L131.550781,77.2109375 L139.976562,77.2109375 L139.976562,80 L128.199219,80 Z M148.296875,80 L148.296875,63.1953125 L155.105469,63.1953125 C156.207037,63.1953125 157.197261,63.3593734 158.076172,63.6875 C158.955083,64.0156266 159.679685,64.4746064 160.25,65.0644531 C160.820315,65.6542998 161.253905,66.3515585 161.550781,67.15625 C161.847658,67.9609415 161.996094,68.8437452 161.996094,69.8046875 L161.996094,73.4023438 C161.996094,75.3711036 161.39649,76.9628846 160.197266,78.1777344 C158.998041,79.3925842 157.300792,80 155.105469,80 L148.296875,80 Z M151.625,77.2695312 L154.53125,77.2695312 C155.875007,77.2695312 156.898434,76.9375033 157.601562,76.2734375 C158.304691,75.6093717 158.65625,74.6601624 158.65625,73.4257812 L158.65625,69.78125 C158.65625,68.5468688 158.304691,67.5976596 157.601562,66.9335938 C156.898434,66.2695279 155.875007,65.9375 154.53125,65.9375 L151.625,65.9375 L151.625,77.2695312 Z M163.859375,80 L169.882812,63.1953125 L173.292969,63.1953125 L179.316406,80 L175.976562,80 L174.851562,76.4726562 L168.324219,76.4726562 L167.199219,80 L163.859375,80 Z M169.167969,73.8125 L173.984375,73.8125 L171.59375,66.21875 L169.167969,73.8125 Z M180.488281,65.984375 L180.488281,63.1953125 L193.355469,63.1953125 L193.355469,65.984375 L188.597656,65.984375 L188.597656,80 L185.246094,80 L185.246094,65.984375 L180.488281,65.984375 Z M194.527344,80 L200.550781,63.1953125 L203.960938,63.1953125 L209.984375,80 L206.644531,80 L205.519531,76.4726562 L198.992188,76.4726562 L197.867188,80 L194.527344,80 Z M199.835938,73.8125 L204.652344,73.8125 L202.261719,66.21875 L199.835938,73.8125 Z M217.132812,75.125 L217.132812,74.6914062 L220.34375,74.6914062 L220.34375,75.0546875 C220.34375,75.859379 220.648434,76.50781 221.257812,77 C221.867191,77.49219 222.722651,77.7382812 223.824219,77.7382812 C224.832036,77.7382812 225.63281,77.5234396 226.226562,77.09375 C226.820315,76.6640604 227.117188,76.0664101 227.117188,75.3007812 C227.117188,74.3085888 226.585943,73.6757826 225.523438,73.4023438 L221.140625,72.2773438 C219.835931,71.9492171 218.884769,71.4511752 218.287109,70.7832031 C217.68945,70.115231 217.390625,69.1640687 217.390625,67.9296875 C217.390625,66.3593671 217.945307,65.1230514 219.054688,64.2207031 C220.164068,63.3183549 221.667959,62.8671875 223.566406,62.8671875 C225.410165,62.8671875 226.882807,63.3300735 227.984375,64.2558594 C229.085943,65.1816453 229.636719,66.3906175 229.636719,67.8828125 L229.636719,68.2929688 L226.53125,68.2929688 L226.53125,67.953125 C226.53125,67.2031212 226.283206,66.5996117 225.787109,66.1425781 C225.291013,65.6855446 224.550786,65.4570312 223.566406,65.4570312 C222.652339,65.4570312 221.935549,65.6406232 221.416016,66.0078125 C220.896482,66.3750018 220.636719,66.9179652 220.636719,67.6367188 C220.636719,68.582036 221.117183,69.17578 222.078125,69.4179688 L226.683594,70.6367188 C229.128918,71.277347 230.351562,72.7421761 230.351562,75.03125 C230.351562,76.0703177 230.062503,76.9960897 229.484375,77.8085938 C228.906247,78.6210978 228.113286,79.2460916 227.105469,79.6835938 C226.097651,80.1210959 224.96485,80.3398438 223.707031,80.3398438 C221.707021,80.3398438 220.111334,79.8769578 218.919922,78.9511719 C217.72851,78.025386 217.132812,76.7500081 217.132812,75.125 Z M232.121094,65.984375 L232.121094,63.1953125 L244.988281,63.1953125 L244.988281,65.984375 L240.230469,65.984375 L240.230469,80 L236.878906,80 L236.878906,65.984375 L232.121094,65.984375 Z M247.460938,80 L247.460938,63.1953125 L255.042969,63.1953125 C256.964853,63.1953125 258.457026,63.7246041 259.519531,64.7832031 C260.582037,65.8418022 261.113281,67.2187415 261.113281,68.9140625 C261.113281,70.1015684 260.820315,71.1503861 260.234375,72.0605469 C259.648435,72.9707077 258.835943,73.6484353 257.796875,74.09375 L261.300781,80 L257.421875,80 L254.339844,74.6210938 L250.8125,74.6210938 L250.8125,80 L247.460938,80 Z M250.8125,71.9140625 L254.632812,71.9140625 C255.632817,71.9140625 256.402341,71.6367215 256.941406,71.0820312 C257.480471,70.527341 257.75,69.7968795 257.75,68.890625 C257.75,67.9687454 257.480471,67.2460964 256.941406,66.7226562 C256.402341,66.1992161 255.632817,65.9375 254.632812,65.9375 L250.8125,65.9375 L250.8125,71.9140625 Z M264.078125,73.953125 L264.078125,63.1953125 L267.417969,63.1953125 L267.417969,74.09375 C267.417969,75.1718804 267.740231,76.0175751 268.384766,76.6308594 C269.0293,77.2441437 269.898432,77.5507812 270.992188,77.5507812 C272.07813,77.5507812 272.941403,77.2441437 273.582031,76.6308594 C274.222659,76.0175751 274.542969,75.1718804 274.542969,74.09375 L274.542969,63.1953125 L277.90625,63.1953125 L277.90625,73.953125 C277.90625,75.8750096 277.291022,77.419916 276.060547,78.5878906 C274.830072,79.7558652 273.140636,80.3398438 270.992188,80.3398438 C268.843739,80.3398438 267.154303,79.7558652 265.923828,78.5878906 C264.693353,77.419916 264.078125,75.8750096 264.078125,73.953125 Z M280.976562,72.8046875 L280.976562,70.4023438 C280.976562,69.3085883 281.123045,68.3105514 281.416016,67.4082031 C281.708986,66.5058549 282.148435,65.712894 282.734375,65.0292969 C283.320315,64.3456997 284.087886,63.814455 285.037109,63.4355469 C285.986333,63.0566387 287.078119,62.8671875 288.3125,62.8671875 C289.343755,62.8671875 290.296871,63.0351546 291.171875,63.3710938 C292.046879,63.7070329 292.779294,64.1621065 293.369141,64.7363281 C293.958987,65.3105497 294.42578,65.9785118 294.769531,66.7402344 C295.113283,67.5019569 295.304687,68.3124957 295.34375,69.171875 L292.226562,69.171875 C292.109374,68.1406198 291.72266,67.291019 291.066406,66.6230469 C290.410153,65.9550748 289.492193,65.6210938 288.3125,65.6210938 C286.960931,65.6210938 285.955081,66.0351521 285.294922,66.8632812 C284.634762,67.6914104 284.304688,68.8124929 284.304688,70.2265625 L284.304688,72.96875 C284.304688,74.3828196 284.634762,75.5039021 285.294922,76.3320312 C285.955081,77.1601604 286.960931,77.5742188 288.3125,77.5742188 C289.492193,77.5742188 290.410153,77.2402377 291.066406,76.5722656 C291.72266,75.9042935 292.109374,75.0546927 292.226562,74.0234375 L295.34375,74.0234375 C295.304687,74.8828168 295.113283,75.6953087 294.769531,76.4609375 C294.42578,77.2265663 293.958987,77.8964815 293.369141,78.4707031 C292.779294,79.0449247 292.046879,79.4999983 291.171875,79.8359375 C290.296871,80.1718767 289.343755,80.3398438 288.3125,80.3398438 C287.078119,80.3398438 285.986333,80.1503925 285.037109,79.7714844 C284.087886,79.3925762 283.320315,78.8613315 282.734375,78.1777344 C282.148435,77.4941372 281.708986,76.7011764 281.416016,75.7988281 C281.123045,74.8964799 280.976562,73.898443 280.976562,72.8046875 Z M297.183594,65.984375 L297.183594,63.1953125 L310.050781,63.1953125 L310.050781,65.984375 L305.292969,65.984375 L305.292969,80 L301.941406,80 L301.941406,65.984375 L297.183594,65.984375 Z M312.394531,73.953125 L312.394531,63.1953125 L315.734375,63.1953125 L315.734375,74.09375 C315.734375,75.1718804 316.056637,76.0175751 316.701172,76.6308594 C317.345706,77.2441437 318.214838,77.5507812 319.308594,77.5507812 C320.394537,77.5507812 321.257809,77.2441437 321.898438,76.6308594 C322.539066,76.0175751 322.859375,75.1718804 322.859375,74.09375 L322.859375,63.1953125 L326.222656,63.1953125 L326.222656,73.953125 C326.222656,75.8750096 325.607428,77.419916 324.376953,78.5878906 C323.146478,79.7558652 321.457042,80.3398438 319.308594,80.3398438 C317.160146,80.3398438 315.470709,79.7558652 314.240234,78.5878906 C313.009759,77.419916 312.394531,75.8750096 312.394531,73.953125 Z M329.796875,80 L329.796875,63.1953125 L337.378906,63.1953125 C339.300791,63.1953125 340.792963,63.7246041 341.855469,64.7832031 C342.917974,65.8418022 343.449219,67.2187415 343.449219,68.9140625 C343.449219,70.1015684 343.156253,71.1503861 342.570312,72.0605469 C341.984372,72.9707077 341.17188,73.6484353 340.132812,74.09375 L343.636719,80 L339.757812,80 L336.675781,74.6210938 L333.148438,74.6210938 L333.148438,80 L329.796875,80 Z M333.148438,71.9140625 L336.96875,71.9140625 C337.968755,71.9140625 338.738279,71.6367215 339.277344,71.0820312 C339.816409,70.527341 340.085938,69.7968795 340.085938,68.890625 C340.085938,67.9687454 339.816409,67.2460964 339.277344,66.7226562 C338.738279,66.1992161 337.968755,65.9375 336.96875,65.9375 L333.148438,65.9375 L333.148438,71.9140625 Z M346.542969,80 L346.542969,63.1953125 L358.296875,63.1953125 L358.296875,65.984375 L349.894531,65.984375 L349.894531,70.0859375 L357.582031,70.0859375 L357.582031,72.8984375 L349.894531,72.8984375 L349.894531,77.2109375 L358.320312,77.2109375 L358.320312,80 L346.542969,80 Z M360.839844,75.125 L360.839844,74.6914062 L364.050781,74.6914062 L364.050781,75.0546875 C364.050781,75.859379 364.355466,76.50781 364.964844,77 C365.574222,77.49219 366.429682,77.7382812 367.53125,77.7382812 C368.539068,77.7382812 369.339841,77.5234396 369.933594,77.09375 C370.527347,76.6640604 370.824219,76.0664101 370.824219,75.3007812 C370.824219,74.3085888 370.292974,73.6757826 369.230469,73.4023438 L364.847656,72.2773438 C363.542962,71.9492171 362.5918,71.4511752 361.994141,70.7832031 C361.396481,70.115231 361.097656,69.1640687 361.097656,67.9296875 C361.097656,66.3593671 361.652338,65.1230514 362.761719,64.2207031 C363.871099,63.3183549 365.374991,62.8671875 367.273438,62.8671875 C369.117197,62.8671875 370.589838,63.3300735 371.691406,64.2558594 C372.792974,65.1816453 373.34375,66.3906175 373.34375,67.8828125 L373.34375,68.2929688 L370.238281,68.2929688 L370.238281,67.953125 C370.238281,67.2031212 369.990237,66.5996117 369.494141,66.1425781 C368.998044,65.6855446 368.257817,65.4570312 367.273438,65.4570312 C366.35937,65.4570312 365.642581,65.6406232 365.123047,66.0078125 C364.603513,66.3750018 364.34375,66.9179652 364.34375,67.6367188 C364.34375,68.582036 364.824214,69.17578 365.785156,69.4179688 L370.390625,70.6367188 C372.83595,71.277347 374.058594,72.7421761 374.058594,75.03125 C374.058594,76.0703177 373.769534,76.9960897 373.191406,77.8085938 C372.613278,78.6210978 371.820318,79.2460916 370.8125,79.6835938 C369.804682,80.1210959 368.671881,80.3398438 367.414062,80.3398438 C365.414053,80.3398438 363.818365,79.8769578 362.626953,78.9511719 C361.435541,78.025386 360.839844,76.7500081 360.839844,75.125 Z M382.449219,80 L382.449219,63.1953125 L385.8125,63.1953125 L385.8125,80 L382.449219,80 Z M389.621094,80 L389.621094,63.1953125 L392.808594,63.1953125 L400.132812,74.3867188 L400.132812,63.1953125 L403.414062,63.1953125 L403.414062,80 L400.226562,80 L392.902344,68.8203125 L392.902344,80 L389.621094,80 Z M411.875,72.8046875 L411.875,70.4023438 C411.875,69.3085883 412.021483,68.3105514 412.314453,67.4082031 C412.607423,66.5058549 413.046872,65.712894 413.632812,65.0292969 C414.218753,64.3456997 414.986323,63.814455 415.935547,63.4355469 C416.88477,63.0566387 417.976556,62.8671875 419.210938,62.8671875 C420.242193,62.8671875 421.195308,63.0351546 422.070312,63.3710938 C422.945317,63.7070329 423.677731,64.1621065 424.267578,64.7363281 C424.857425,65.3105497 425.324217,65.9785118 425.667969,66.7402344 C426.01172,67.5019569 426.203125,68.3124957 426.242188,69.171875 L423.125,69.171875 C423.007812,68.1406198 422.621097,67.291019 421.964844,66.6230469 C421.30859,65.9550748 420.390631,65.6210938 419.210938,65.6210938 C417.859368,65.6210938 416.853519,66.0351521 416.193359,66.8632812 C415.5332,67.6914104 415.203125,68.8124929 415.203125,70.2265625 L415.203125,72.96875 C415.203125,74.3828196 415.5332,75.5039021 416.193359,76.3320312 C416.853519,77.1601604 417.859368,77.5742188 419.210938,77.5742188 C420.390631,77.5742188 421.30859,77.2402377 421.964844,76.5722656 C422.621097,75.9042935 423.007812,75.0546927 423.125,74.0234375 L426.242188,74.0234375 C426.203125,74.8828168 426.01172,75.6953087 425.667969,76.4609375 C425.324217,77.2265663 424.857425,77.8964815 424.267578,78.4707031 C423.677731,79.0449247 422.945317,79.4999983 422.070312,79.8359375 C421.195308,80.1718767 420.242193,80.3398438 419.210938,80.3398438 C417.976556,80.3398438 416.88477,80.1503925 415.935547,79.7714844 C414.986323,79.3925762 414.218753,78.8613315 413.632812,78.1777344 C413.046872,77.4941372 412.607423,76.7011764 412.314453,75.7988281 C412.021483,74.8964799 411.875,73.898443 411.875,72.8046875 Z" id="libstructures-IMMUTA" fill="#9B9BA7"></path>
            <path d="M0.58203125,53 L0.58203125,0.44140625 L10.390625,0.44140625 L10.390625,53 L0.58203125,53 Z M21.2890625,9.828125 C20.2109321,8.74999461 19.671875,7.40235184 19.671875,5.78515625 C19.671875,4.16796066 20.2109321,2.81445857 21.2890625,1.72460938 C22.3671929,0.634760176 23.7265543,0.08984375 25.3671875,0.08984375 C27.0078207,0.08984375 28.3613228,0.634760176 29.4277344,1.72460938 C30.494146,2.81445857 31.0273438,4.16796066 31.0273438,5.78515625 C31.0273438,7.40235184 30.494146,8.74999461 29.4277344,9.828125 C28.3613228,10.9062554 27.0078207,11.4453125 25.3671875,11.4453125 C23.7265543,11.4453125 22.3671929,10.9062554 21.2890625,9.828125 Z M20.4453125,53 L20.4453125,15.5585938 L30.2539062,15.5585938 L30.2539062,53 L20.4453125,53 Z M40.0976562,53 L40.0976562,0.44140625 L49.90625,0.44140625 L49.90625,19.7421875 C50.9843804,18.24218 52.4492095,17.0234422 54.3007812,16.0859375 C56.152353,15.1484328 58.2617069,14.6796875 60.6289062,14.6796875 C63.886735,14.6796875 66.7226442,15.4355393 69.1367188,16.9472656 C71.5507933,18.4589919 73.3496035,20.4453002 74.5332031,22.90625 C75.7168028,25.3671998 76.3085938,28.1210785 76.3085938,31.1679687 L76.3085938,37.390625 C76.3085938,40.39064 75.7109435,43.1210814 74.515625,45.5820312 C73.3203065,48.0429811 71.5097778,50.0410079 69.0839844,51.5761719 C66.658191,53.1113358 63.8164225,53.8789062 60.5585938,53.8789062 C57.9570182,53.8789062 55.6777442,53.3867237 53.7207031,52.4023438 C51.7636621,51.4179638 50.3398482,50.1289142 49.4492188,48.5351562 L49.4492188,53 L40.0976562,53 Z M49.90625,36.9335938 C49.90625,39.5820445 50.6679611,41.7441322 52.1914062,43.4199219 C53.7148514,45.0957115 55.7070189,45.9335938 58.1679688,45.9335938 C60.8867323,45.9335938 62.9609304,45.0898522 64.390625,43.4023438 C65.8203196,41.7148353 66.5351562,39.5586069 66.5351562,36.9335938 L66.5351562,31.625 C66.5351562,28.9062364 65.8027417,26.7265707 64.3378906,25.0859375 C62.8730396,23.4453043 60.7929822,22.625 58.0976562,22.625 C55.7773321,22.625 53.8320391,23.4160077 52.2617188,24.9980469 C50.6913984,26.580086 49.90625,28.7421738 49.90625,31.484375 L49.90625,36.9335938 Z M82.7070312,41.9257812 L82.7070312,41.2578125 L91.3554688,41.2578125 L91.3554688,41.7851562 C91.3554688,43.4023518 92.0351495,44.6679642 93.3945312,45.5820312 C94.753913,46.4960983 96.5937384,46.953125 98.9140625,46.953125 C101.023448,46.953125 102.740228,46.5488322 104.064453,45.7402344 C105.388678,44.9316366 106.050781,43.8242258 106.050781,42.4179688 C106.050781,40.6367098 105.019542,39.5117211 102.957031,39.0429688 L91.8476562,36.5117188 C88.9648293,35.8554655 86.8203195,34.7421954 85.4140625,33.171875 C84.0078055,31.6015546 83.3046875,29.4218889 83.3046875,26.6328125 C83.3046875,22.8593561 84.6874862,19.9238386 87.453125,17.8261719 C90.2187638,15.7285051 93.8749773,14.6796875 98.421875,14.6796875 C102.945335,14.6796875 106.548815,15.7519424 109.232422,17.8964844 C111.916029,20.0410263 113.257812,22.9531066 113.257812,26.6328125 L113.257812,27.2304688 L104.679688,27.2304688 L104.679688,26.5625 C104.679688,25.0390549 104.181646,23.8437543 103.185547,22.9765625 C102.189448,22.1093707 100.648448,21.6757812 98.5625,21.6757812 C96.5703025,21.6757812 95.0527396,22.0273402 94.0097656,22.7304688 C92.9667917,23.4335973 92.4453125,24.4531183 92.4453125,25.7890625 C92.4453125,26.7031296 92.6796852,27.4062475 93.1484375,27.8984375 C93.6171898,28.3906275 94.3437451,28.7421864 95.328125,28.953125 L106.683594,31.765625 C109.496108,32.4687535 111.593743,33.5878829 112.976562,35.1230469 C114.359382,36.6582108 115.050781,38.7265495 115.050781,41.328125 C115.050781,44.9609557 113.51564,47.9609257 110.445312,50.328125 C107.374985,52.6953243 103.507836,53.8789062 98.84375,53.8789062 C93.945288,53.8789062 90.0312646,52.8535259 87.1015625,50.8027344 C84.1718604,48.7519429 82.7070312,45.7929881 82.7070312,41.9257812 Z M119.621094,23.46875 L119.621094,15.5585938 L124.964844,15.5585938 L124.964844,5.328125 L134.808594,5.328125 L134.808594,15.5585938 L142.824219,15.5585938 L142.824219,23.46875 L134.808594,23.46875 L134.808594,41.609375 C134.808594,42.8515687 135.078122,43.7421848 135.617188,44.28125 C136.156253,44.8203152 137.070306,45.0898438 138.359375,45.0898438 L142.296875,45.0898438 L142.296875,53 L135.546875,53 C132.031232,53 129.388681,52.0683687 127.619141,50.2050781 C125.849601,48.3417876 124.964844,45.7226731 124.964844,42.3476562 L124.964844,23.46875 L119.621094,23.46875 Z M150.136719,53 L150.136719,15.5585938 L159.417969,15.5585938 L159.417969,22.8359375 C160.519537,17.7968498 164.269499,15.2773438 170.667969,15.2773438 L171.828125,15.2773438 L171.828125,24.9804688 L169.789062,24.9804688 C166.531234,24.9804688 164.07618,25.8417883 162.423828,27.5644531 C160.771476,29.287118 159.945312,31.9999815 159.945312,35.703125 L159.945312,53 L150.136719,53 Z M178.121094,39.5351562 L178.121094,15.5585938 L187.929688,15.5585938 L187.929688,38.1640625 C187.929688,40.5546995 188.486323,42.4003841 189.599609,43.7011719 C190.712896,45.0019596 192.359364,45.6523438 194.539062,45.6523438 C196.789074,45.6523438 198.541009,44.9785224 199.794922,43.6308594 C201.048834,42.2831964 201.675781,40.4375117 201.675781,38.09375 L201.675781,15.5585938 L211.449219,15.5585938 L211.449219,53 L202.097656,53 L202.097656,48.5351562 C201.230464,50.1289142 199.800791,51.4179638 197.808594,52.4023438 C195.816396,53.3867237 193.625012,53.8789062 191.234375,53.8789062 C187.085917,53.8789062 183.863293,52.5722787 181.566406,49.9589844 C179.26952,47.3456901 178.121094,43.8711154 178.121094,39.5351562 Z M219.429688,36.9335938 L219.429688,31.625 C219.429688,26.5859123 220.999984,22.5019688 224.140625,19.3730469 C227.281266,16.244125 231.61716,14.6796875 237.148438,14.6796875 C242.117212,14.6796875 246.166,16.0683455 249.294922,18.8457031 C252.423844,21.6230608 254.058593,25.1796658 254.199219,29.515625 L245.269531,29.515625 C245.035155,27.4999899 244.267585,25.8476627 242.966797,24.5585938 C241.666009,23.2695248 239.796887,22.625 237.359375,22.625 C234.687487,22.625 232.666022,23.4101484 231.294922,24.9804688 C229.923821,26.5507891 229.238281,28.6484244 229.238281,31.2734375 L229.238281,37.3203125 C229.238281,39.9453256 229.923821,42.0371016 231.294922,43.5957031 C232.666022,45.1543047 234.687487,45.9335938 237.359375,45.9335938 C239.796887,45.9335938 241.666009,45.2890689 242.966797,44 C244.267585,42.7109311 245.035155,41.0586038 245.269531,39.0429688 L254.199219,39.0429688 C254.058593,43.3789279 252.423844,46.935533 249.294922,49.7128906 C246.166,52.4902483 242.117212,53.8789062 237.148438,53.8789062 C231.61716,53.8789062 227.281266,52.3144688 224.140625,49.1855469 C220.999984,46.056625 219.429688,41.9726814 219.429688,36.9335938 Z M259.296875,23.46875 L259.296875,15.5585938 L264.640625,15.5585938 L264.640625,5.328125 L274.484375,5.328125 L274.484375,15.5585938 L282.5,15.5585938 L282.5,23.46875 L274.484375,23.46875 L274.484375,41.609375 C274.484375,42.8515687 274.753904,43.7421848 275.292969,44.28125 C275.832034,44.8203152 276.746087,45.0898438 278.035156,45.0898438 L281.972656,45.0898438 L281.972656,53 L275.222656,53 C271.707014,53 269.064462,52.0683687 267.294922,50.2050781 C265.525382,48.3417876 264.640625,45.7226731 264.640625,42.3476562 L264.640625,23.46875 L259.296875,23.46875 Z M289.460938,39.5351562 L289.460938,15.5585938 L299.269531,15.5585938 L299.269531,38.1640625 C299.269531,40.5546995 299.826166,42.4003841 300.939453,43.7011719 C302.05274,45.0019596 303.699208,45.6523438 305.878906,45.6523438 C308.128917,45.6523438 309.880853,44.9785224 311.134766,43.6308594 C312.388678,42.2831964 313.015625,40.4375117 313.015625,38.09375 L313.015625,15.5585938 L322.789062,15.5585938 L322.789062,53 L313.4375,53 L313.4375,48.5351562 C312.570308,50.1289142 311.140635,51.4179638 309.148438,52.4023438 C307.15624,53.3867237 304.964856,53.8789062 302.574219,53.8789062 C298.425761,53.8789062 295.203136,52.5722787 292.90625,49.9589844 C290.609364,47.3456901 289.460938,43.8711154 289.460938,39.5351562 Z M332.421875,53 L332.421875,15.5585938 L341.703125,15.5585938 L341.703125,22.8359375 C342.804693,17.7968498 346.554656,15.2773438 352.953125,15.2773438 L354.113281,15.2773438 L354.113281,24.9804688 L352.074219,24.9804688 C348.81639,24.9804688 346.361336,25.8417883 344.708984,27.5644531 C343.056632,29.287118 342.230469,31.9999815 342.230469,35.703125 L342.230469,53 L332.421875,53 Z M359.105469,37.1445312 L359.105469,32.046875 C359.105469,26.8202864 360.617172,22.6191565 363.640625,19.4433594 C366.664078,16.2675622 370.917941,14.6796875 376.402344,14.6796875 C379.964862,14.6796875 383.029284,15.42968 385.595703,16.9296875 C388.162122,18.429695 390.054681,20.3984253 391.273438,22.8359375 C392.492194,25.2734497 393.101562,28.0273284 393.101562,31.0976562 L393.101562,37.671875 L368.597656,37.671875 L368.597656,38.5859375 C368.597656,40.9765745 369.2539,42.9453048 370.566406,44.4921875 C371.878913,46.0390702 373.87108,46.8125 376.542969,46.8125 C378.535166,46.8125 380.187493,46.367192 381.5,45.4765625 C382.812507,44.585933 383.72656,43.4492257 384.242188,42.0664062 L392.820312,42.0664062 C392.164059,45.511736 390.318375,48.3417858 387.283203,50.5566406 C384.248032,52.7714954 380.667989,53.8789062 376.542969,53.8789062 C371.199192,53.8789062 366.957047,52.3906399 363.816406,49.4140625 C360.675766,46.4374851 359.105469,42.3476823 359.105469,37.1445312 Z M368.597656,30.7460938 L384.101562,30.7460938 L384.101562,29.8320312 C384.101562,27.3710814 383.451178,25.3847732 382.150391,23.8730469 C380.849603,22.3613206 378.933606,21.6054688 376.402344,21.6054688 C373.730455,21.6054688 371.761725,22.3964765 370.496094,23.9785156 C369.230462,25.5605548 368.597656,27.6992053 368.597656,30.3945312 L368.597656,30.7460938 Z M399.464844,41.9257812 L399.464844,41.2578125 L408.113281,41.2578125 L408.113281,41.7851562 C408.113281,43.4023518 408.792962,44.6679642 410.152344,45.5820312 C411.511726,46.4960983 413.351551,46.953125 415.671875,46.953125 C417.781261,46.953125 419.49804,46.5488322 420.822266,45.7402344 C422.146491,44.9316366 422.808594,43.8242258 422.808594,42.4179688 C422.808594,40.6367098 421.777354,39.5117211 419.714844,39.0429688 L408.605469,36.5117188 C405.722642,35.8554655 403.578132,34.7421954 402.171875,33.171875 C400.765618,31.6015546 400.0625,29.4218889 400.0625,26.6328125 C400.0625,22.8593561 401.445299,19.9238386 404.210938,17.8261719 C406.976576,15.7285051 410.63279,14.6796875 415.179688,14.6796875 C419.703148,14.6796875 423.306627,15.7519424 425.990234,17.8964844 C428.673842,20.0410263 430.015625,22.9531066 430.015625,26.6328125 L430.015625,27.2304688 L421.4375,27.2304688 L421.4375,26.5625 C421.4375,25.0390549 420.939458,23.8437543 419.943359,22.9765625 C418.947261,22.1093707 417.40626,21.6757812 415.320312,21.6757812 C413.328115,21.6757812 411.810552,22.0273402 410.767578,22.7304688 C409.724604,23.4335973 409.203125,24.4531183 409.203125,25.7890625 C409.203125,26.7031296 409.437498,27.4062475 409.90625,27.8984375 C410.375002,28.3906275 411.101558,28.7421864 412.085938,28.953125 L423.441406,31.765625 C426.25392,32.4687535 428.351556,33.5878829 429.734375,35.1230469 C431.117194,36.6582108 431.808594,38.7265495 431.808594,41.328125 C431.808594,44.9609557 430.273453,47.9609257 427.203125,50.328125 C424.132797,52.6953243 420.265648,53.8789062 415.601562,53.8789062 C410.703101,53.8789062 406.789077,52.8535259 403.859375,50.8027344 C400.929673,48.7519429 399.464844,45.7929881 399.464844,41.9257812 Z" id="Combined-Shape" fill="#4D5160"></path>
        </g>
    </g>
</svg>